<svg width="250" height="100" viewBox="0 0 250 100" fill="none" xmlns="http://www.w3.org/2000/svg">
<rect width="250" height="100" fill="white"/>
<path d="M32.5148 66.1551L90.5451 19.1704L148.575 67.3446" stroke="#C4C4C4" stroke-width="1.43284"/>
<path d="M104.157 69.0208L162.187 22.0362L220.217 70.2103" stroke="#C4C4C4" stroke-width="1.43284"/>
<path d="M32.5148 69.7236L90.5451 22.7389L147.142 69.7236" stroke="#C4C4C4" stroke-width="1.43284"/>
<path d="M104.157 72.5892L162.187 25.6046L218.784 72.5892" stroke="#C4C4C4" stroke-width="1.43284"/>
<path d="M31.1001 63.7764L90.5449 15.6174L148.592 63.8073" stroke="#C4C4C4" stroke-width="1.43284"/>
<path d="M102.742 66.6421L162.187 18.4831L220.234 66.6729" stroke="#C4C4C4" stroke-width="1.43284"/>
<rect x="80.5149" y="52.9877" width="21.4926" height="8.59703" fill="white" stroke="#C4C4C4" stroke-width="1.43284"/>
<rect x="152.157" y="52.9877" width="21.4926" height="8.59703" fill="white" stroke="#C4C4C4" stroke-width="1.43284"/>
<rect x="89.8283" y="53.7041" width="2.86568" height="7.16419" fill="#C4C4C4"/>
<rect x="161.47" y="53.7041" width="2.86568" height="7.16419" fill="#C4C4C4"/>
<rect x="58.3058" y="16.4503" width="1.43284" height="24.3583" fill="#C4C4C4"/>
<rect x="129.948" y="19.316" width="1.43284" height="24.3583" fill="#C4C4C4"/>
<path d="M61.1715 16.4503H62.6044V38.8515L61.1715 39.3757V16.4503Z" fill="#C4C4C4"/>
<path d="M132.813 19.316H134.246V41.7172L132.813 42.2414V19.316Z" fill="#C4C4C4"/>
<rect x="64.0372" y="16.4503" width="1.43284" height="20.0597" fill="#C4C4C4"/>
<rect x="135.679" y="19.316" width="1.43284" height="20.0597" fill="#C4C4C4"/>
<rect x="56.873" y="15.0175" width="10.0299" height="1.43284" rx="0.716419" fill="#C4C4C4"/>
<rect x="128.515" y="17.8832" width="10.0299" height="1.43284" rx="0.716419" fill="#C4C4C4"/>
<rect x="14" y="61" width="219" height="38" fill="white"/>
<rect x="32.5148" y="59.4355" width="183.403" height="2.86568" fill="#C4C4C4"/>
<rect x="32.5148" y="82.3609" width="183.403" height="2.86568" fill="#C4C4C4"/>
<path d="M32.6695 65.1731H42.3498V67.9242H32.6695V65.1731ZM35.7816 68.612H39.2205V77.0027H35.7816V68.612ZM43.6231 65.1731H47.0619V77.0027H43.6231V65.1731ZM47.784 65.1731H52.1513V67.8038H47.784V65.1731ZM47.784 69.7124H51.3432V72.3431H47.784V69.7124ZM47.784 74.372H52.1513V77.0027H47.784V74.372ZM54.2182 65.1731H57.6571V77.0027H54.2182V65.1731ZM58.3792 74.2344H62.0587V77.0027H58.3792V74.2344ZM70.6692 65.1731H70.9615L72.3198 69.8843L70.3425 77.0027H66.9037L70.6692 65.1731ZM74.5379 74.905H71.6664L72.3886 72.2571H73.7641L71.7352 65.1731H74.8817L78.6472 77.0027H75.1396L74.5379 74.905ZM81.4238 76.504C81.2748 76.0455 81.143 75.5985 81.0283 75.1629L80.4781 73.2715C80.2947 72.6526 80.1514 72.1883 80.0483 71.8788C79.9566 71.5349 79.8821 71.277 79.8248 71.1051L78.071 65.1731H81.5786L84.7938 77.0027H81.5786L81.4238 76.504ZM84.1233 71.7585L85.8599 65.1731H89.2987L87.5449 71.1051L86.9087 73.2715C86.7024 73.9364 86.5133 74.5668 86.3413 75.1629C86.2267 75.5985 86.0949 76.0455 85.9458 76.504L85.7911 77.0027H85.5504L84.1233 71.7585ZM90.5037 65.1731H93.9426V77.0027H90.5037V65.1731ZM98.5003 76.504C98.3513 76.0455 98.2195 75.5985 98.1049 75.1629L97.5547 73.2715C97.3713 72.6526 97.228 72.1883 97.1248 71.8788C97.0331 71.5349 96.9586 71.277 96.9013 71.1051L95.1475 65.1731H98.6551L101.87 77.0027H98.6551L98.5003 76.504ZM101.2 71.7585L102.936 65.1731H106.375L104.621 71.1051L103.985 73.2715C103.779 73.9364 103.59 74.5668 103.418 75.1629C103.303 75.5985 103.171 76.0455 103.022 76.504L102.868 77.0027H102.627L101.2 71.7585Z" fill="#5E5C5C"/>
<path d="M67.1579 95.3609H64.6949C64.5831 95.3609 64.5272 95.3093 64.5272 95.2062V94.6516C64.5272 94.5485 64.5831 94.4969 64.6949 94.4969H65.4041V89.8803H64.6949C64.5831 89.8803 64.5272 89.8287 64.5272 89.7255V89.171C64.5272 89.0679 64.5831 89.0163 64.6949 89.0163H66.2037C66.3154 89.0163 66.3713 89.0679 66.3713 89.171V90.783H66.41C66.4358 90.6454 66.526 90.4563 66.6808 90.2156C66.8355 89.9749 67.0032 89.7771 67.1837 89.6224C67.3728 89.459 67.6394 89.3129 67.9832 89.1839C68.3357 89.055 68.7312 88.9905 69.1696 88.9905C69.2814 88.9905 69.3373 89.0464 69.3373 89.1581V89.8416C69.3373 89.9534 69.2814 90.0092 69.1696 90.0092H68.8988C68.1595 90.0092 67.5706 90.2457 67.1321 90.7185C66.6937 91.1913 66.4745 91.7287 66.4745 92.3304V94.4969H67.1579C67.2697 94.4969 67.3256 94.5485 67.3256 94.6516V95.2062C67.3256 95.3093 67.2697 95.3609 67.1579 95.3609ZM75.492 92.3176H70.8496C70.884 93.0311 71.1075 93.5813 71.5201 93.9682C71.9414 94.355 72.4142 94.5485 72.9387 94.5485C73.4631 94.5485 73.9101 94.4367 74.2798 94.2132C74.6581 93.9897 74.9117 93.7705 75.0406 93.5555C75.1094 93.4696 75.1868 93.4567 75.2727 93.5168L75.6209 93.865C75.6725 93.9166 75.6983 93.9639 75.6983 94.0069C75.6983 94.0413 75.6768 94.0885 75.6338 94.1487C75.5994 94.2089 75.5221 94.3035 75.4017 94.4324C75.2813 94.5614 75.1094 94.7075 74.8859 94.8709C74.671 95.0342 74.3873 95.1718 74.0348 95.2835C73.6909 95.3953 73.3212 95.4512 72.9258 95.4512C72.0231 95.4512 71.2665 95.1546 70.6561 94.5614C70.0543 93.9682 69.7535 93.173 69.7535 92.1757C69.7535 91.1698 70.0543 90.3789 70.6561 89.8029C71.2579 89.2183 71.993 88.926 72.8613 88.926C73.7382 88.926 74.4259 89.2097 74.9246 89.7771C75.4232 90.3359 75.6725 91.0925 75.6725 92.0467C75.6725 92.0811 75.6725 92.1155 75.6725 92.1499C75.6725 92.2617 75.6123 92.3176 75.492 92.3176ZM74.6022 91.5309C74.5764 90.9979 74.4087 90.5724 74.0993 90.2543C73.7898 89.9362 73.3771 89.7771 72.8613 89.7771C72.3455 89.7771 71.9027 89.9233 71.533 90.2156C71.1634 90.5079 70.9441 90.9463 70.8754 91.5309H74.6022ZM83.0115 95.3609H81.8896C81.5199 95.3609 81.3351 95.1804 81.3351 94.8193V94.1616H81.3093C80.6817 95.0299 79.8435 95.4641 78.7946 95.4641C78.1757 95.4641 77.6684 95.305 77.273 94.9869C76.8775 94.6602 76.6798 94.2218 76.6798 93.6716C76.6798 92.9666 76.985 92.4508 77.5954 92.1241C78.2143 91.7888 79.0611 91.6212 80.1358 91.6212H81.219V91.4664C81.219 90.3918 80.6602 89.8545 79.5426 89.8545C79.0182 89.8545 78.6399 89.9061 78.4078 90.0092C78.1757 90.1038 78.008 90.1812 77.9048 90.2414C77.8103 90.3015 77.7372 90.3488 77.6856 90.3832C77.5567 90.4864 77.4621 90.495 77.4019 90.409L77.0408 89.9577C76.9807 89.8889 76.9893 89.8201 77.0666 89.7513C77.2128 89.5622 77.5137 89.3774 77.9693 89.1968C78.425 89.0163 78.9623 88.926 79.5813 88.926C81.3866 88.926 82.2893 89.7857 82.2893 91.5051V94.4969H83.0115C83.1146 94.4969 83.1662 94.5485 83.1662 94.6516V95.2062C83.1662 95.3093 83.1146 95.3609 83.0115 95.3609ZM81.219 92.3949H80.2003C79.7016 92.3949 79.289 92.4207 78.9623 92.4723C78.6356 92.5239 78.3562 92.6356 78.1241 92.8076C77.9006 92.9795 77.7888 93.2159 77.7888 93.5168C77.7888 93.8177 77.9091 94.067 78.1499 94.2648C78.3992 94.4539 78.7216 94.5485 79.117 94.5485C79.9509 94.5485 80.6516 94.1788 81.219 93.4395V92.3949ZM86.7153 95.3609H84.2523C84.1405 95.3609 84.0846 95.3093 84.0846 95.2062V94.6516C84.0846 94.5485 84.1405 94.4969 84.2523 94.4969H84.9615V86.9659H84.2523C84.1405 86.9659 84.0846 86.9143 84.0846 86.8112V86.2566C84.0846 86.1535 84.1405 86.1019 84.2523 86.1019H85.6837C85.9158 86.1019 86.0319 86.2094 86.0319 86.4243V94.4969H86.7153C86.8271 94.4969 86.883 94.5485 86.883 94.6516V95.2062C86.883 95.3093 86.8271 95.3609 86.7153 95.3609ZM97.6436 92.3176H93.0012C93.0356 93.0311 93.2591 93.5813 93.6718 93.9682C94.093 94.355 94.5659 94.5485 95.0903 94.5485C95.6147 94.5485 96.0617 94.4367 96.4314 94.2132C96.8097 93.9897 97.0633 93.7705 97.1923 93.5555C97.261 93.4696 97.3384 93.4567 97.4244 93.5168L97.7726 93.865C97.8241 93.9166 97.8499 93.9639 97.8499 94.0069C97.8499 94.0413 97.8284 94.0885 97.7854 94.1487C97.7511 94.2089 97.6737 94.3035 97.5533 94.4324C97.433 94.5614 97.261 94.7075 97.0375 94.8709C96.8226 95.0342 96.5389 95.1718 96.1864 95.2835C95.8425 95.3953 95.4728 95.4512 95.0774 95.4512C94.1747 95.4512 93.4182 95.1546 92.8078 94.5614C92.206 93.9682 91.9051 93.173 91.9051 92.1757C91.9051 91.1698 92.206 90.3789 92.8078 89.8029C93.4096 89.2183 94.1446 88.926 95.0129 88.926C95.8898 88.926 96.5776 89.2097 97.0762 89.7771C97.5748 90.3359 97.8241 91.0925 97.8241 92.0467C97.8241 92.0811 97.8241 92.1155 97.8241 92.1499C97.8241 92.2617 97.764 92.3176 97.6436 92.3176ZM96.7538 91.5309C96.728 90.9979 96.5604 90.5724 96.2509 90.2543C95.9414 89.9362 95.5287 89.7771 95.0129 89.7771C94.4971 89.7771 94.0543 89.9233 93.6847 90.2156C93.315 90.5079 93.0958 90.9463 93.027 91.5309H96.7538ZM101.707 95.4512C101.131 95.4512 100.671 95.3437 100.327 95.1288C99.9831 94.9139 99.7682 94.7118 99.6822 94.5227H99.6564C99.6736 94.9439 99.6822 95.1675 99.6822 95.1933C99.6822 95.305 99.622 95.3609 99.5017 95.3609H99.0632C98.9515 95.3609 98.8956 95.305 98.8956 95.1933V93.2589C98.8956 93.1472 98.9515 93.0913 99.0632 93.0913H99.5661C99.6865 93.0913 99.7467 93.1472 99.7467 93.2589V93.5168C99.8326 93.7747 100.013 94.0112 100.288 94.2261C100.615 94.484 101.023 94.613 101.513 94.613C102.476 94.613 102.958 94.2777 102.958 93.6071C102.958 93.375 102.824 93.1902 102.558 93.0526C102.291 92.9064 101.965 92.7861 101.578 92.6915C101.2 92.597 100.821 92.4895 100.443 92.3691C100.065 92.2488 99.7424 92.0553 99.4759 91.7888C99.2094 91.5137 99.0761 91.1698 99.0761 90.7572C99.0761 90.1984 99.2781 89.7556 99.6822 89.429C100.086 89.0937 100.602 88.926 101.23 88.926C102.081 88.926 102.691 89.1753 103.061 89.674H103.087C103.069 89.3645 103.061 89.2054 103.061 89.1968C103.061 89.0851 103.117 89.0292 103.228 89.0292H103.641C103.753 89.0292 103.809 89.0851 103.809 89.1968V90.9893C103.809 91.1011 103.753 91.157 103.641 91.157H103.138C103.018 91.157 102.958 91.1011 102.958 90.9893V90.8088C102.958 90.5767 102.82 90.3488 102.545 90.1253C102.279 89.8932 101.93 89.7771 101.5 89.7771C101.071 89.7771 100.735 89.8674 100.495 90.0479C100.254 90.2285 100.134 90.4649 100.134 90.7572C100.134 91.0409 100.267 91.2644 100.533 91.4278C100.808 91.5825 101.139 91.7072 101.526 91.8017C101.913 91.8877 102.3 91.9866 102.687 92.0983C103.074 92.2101 103.4 92.3949 103.667 92.6528C103.942 92.9107 104.08 93.2675 104.08 93.7232C104.08 94.1788 103.882 94.5829 103.486 94.9353C103.1 95.2792 102.506 95.4512 101.707 95.4512ZM109.284 94.7032C109.318 94.7376 109.336 94.7763 109.336 94.8193C109.336 94.8537 109.31 94.8967 109.258 94.9482C108.88 95.2835 108.403 95.4512 107.827 95.4512C107.259 95.4512 106.791 95.2663 106.421 94.8967C106.06 94.5184 105.88 93.9725 105.88 93.2589V89.8803H105.157C105.037 89.8803 104.977 89.8244 104.977 89.7127V89.1839C104.977 89.0722 105.037 89.0163 105.157 89.0163H105.88V87.7138C105.88 87.5935 105.94 87.5333 106.06 87.5333H106.782C106.894 87.5333 106.95 87.5935 106.95 87.7138V89.0163H108.588C108.708 89.0163 108.768 89.0722 108.768 89.1839V89.7127C108.768 89.8244 108.708 89.8803 108.588 89.8803H106.95V93.2331C106.95 93.663 107.045 93.9897 107.234 94.2132C107.431 94.4281 107.689 94.5356 108.007 94.5356C108.334 94.5356 108.579 94.4539 108.742 94.2906C108.828 94.2132 108.906 94.2175 108.975 94.3035L109.284 94.7032ZM116.447 95.3609H115.325C114.955 95.3609 114.77 95.1804 114.77 94.8193V94.1616H114.745C114.117 95.0299 113.279 95.4641 112.23 95.4641C111.611 95.4641 111.104 95.305 110.708 94.9869C110.313 94.6602 110.115 94.2218 110.115 93.6716C110.115 92.9666 110.42 92.4508 111.031 92.1241C111.65 91.7888 112.496 91.6212 113.571 91.6212H114.654V91.4664C114.654 90.3918 114.095 89.8545 112.978 89.8545C112.453 89.8545 112.075 89.9061 111.843 90.0092C111.611 90.1038 111.443 90.1812 111.34 90.2414C111.246 90.3015 111.172 90.3488 111.121 90.3832C110.992 90.4864 110.897 90.495 110.837 90.409L110.476 89.9577C110.416 89.8889 110.424 89.8201 110.502 89.7513C110.648 89.5622 110.949 89.3774 111.405 89.1968C111.86 89.0163 112.398 88.926 113.016 88.926C114.822 88.926 115.725 89.7857 115.725 91.5051V94.4969H116.447C116.55 94.4969 116.601 94.5485 116.601 94.6516V95.2062C116.601 95.3093 116.55 95.3609 116.447 95.3609ZM114.654 92.3949H113.635C113.137 92.3949 112.724 92.4207 112.398 92.4723C112.071 92.5239 111.791 92.6356 111.559 92.8076C111.336 92.9795 111.224 93.2159 111.224 93.5168C111.224 93.8177 111.344 94.067 111.585 94.2648C111.834 94.4539 112.157 94.5485 112.552 94.5485C113.386 94.5485 114.087 94.1788 114.654 93.4395V92.3949ZM121.525 94.7032C121.559 94.7376 121.576 94.7763 121.576 94.8193C121.576 94.8537 121.551 94.8967 121.499 94.9482C121.121 95.2835 120.644 95.4512 120.068 95.4512C119.5 95.4512 119.032 95.2663 118.662 94.8967C118.301 94.5184 118.12 93.9725 118.12 93.2589V89.8803H117.398C117.278 89.8803 117.218 89.8244 117.218 89.7127V89.1839C117.218 89.0722 117.278 89.0163 117.398 89.0163H118.12V87.7138C118.12 87.5935 118.18 87.5333 118.301 87.5333H119.023C119.135 87.5333 119.191 87.5935 119.191 87.7138V89.0163H120.828C120.949 89.0163 121.009 89.0722 121.009 89.1839V89.7127C121.009 89.8244 120.949 89.8803 120.828 89.8803H119.191V93.2331C119.191 93.663 119.285 93.9897 119.474 94.2132C119.672 94.4281 119.93 94.5356 120.248 94.5356C120.575 94.5356 120.82 94.4539 120.983 94.2906C121.069 94.2132 121.146 94.2175 121.215 94.3035L121.525 94.7032ZM127.704 92.3176H123.061C123.096 93.0311 123.319 93.5813 123.732 93.9682C124.153 94.355 124.626 94.5485 125.15 94.5485C125.675 94.5485 126.122 94.4367 126.492 94.2132C126.87 93.9897 127.124 93.7705 127.252 93.5555C127.321 93.4696 127.399 93.4567 127.485 93.5168L127.833 93.865C127.884 93.9166 127.91 93.9639 127.91 94.0069C127.91 94.0413 127.889 94.0885 127.846 94.1487C127.811 94.2089 127.734 94.3035 127.614 94.4324C127.493 94.5614 127.321 94.7075 127.098 94.8709C126.883 95.0342 126.599 95.1718 126.247 95.2835C125.903 95.3953 125.533 95.4512 125.138 95.4512C124.235 95.4512 123.478 95.1546 122.868 94.5614C122.266 93.9682 121.965 93.173 121.965 92.1757C121.965 91.1698 122.266 90.3789 122.868 89.8029C123.47 89.2183 124.205 88.926 125.073 88.926C125.95 88.926 126.638 89.2097 127.136 89.7771C127.635 90.3359 127.884 91.0925 127.884 92.0467C127.884 92.0811 127.884 92.1155 127.884 92.1499C127.884 92.2617 127.824 92.3176 127.704 92.3176ZM126.814 91.5309C126.788 90.9979 126.621 90.5724 126.311 90.2543C126.002 89.9362 125.589 89.7771 125.073 89.7771C124.557 89.7771 124.115 89.9233 123.745 90.2156C123.375 90.5079 123.156 90.9463 123.087 91.5309H126.814ZM139.278 95.3609H138.156C137.787 95.3609 137.602 95.1804 137.602 94.8193V94.1616H137.576C136.949 95.0299 136.11 95.4641 135.062 95.4641C134.443 95.4641 133.935 95.305 133.54 94.9869C133.144 94.6602 132.947 94.2218 132.947 93.6716C132.947 92.9666 133.252 92.4508 133.862 92.1241C134.481 91.7888 135.328 91.6212 136.403 91.6212H137.486V91.4664C137.486 90.3918 136.927 89.8545 135.809 89.8545C135.285 89.8545 134.907 89.9061 134.675 90.0092C134.443 90.1038 134.275 90.1812 134.172 90.2414C134.077 90.3015 134.004 90.3488 133.953 90.3832C133.824 90.4864 133.729 90.495 133.669 90.409L133.308 89.9577C133.248 89.8889 133.256 89.8201 133.334 89.7513C133.48 89.5622 133.781 89.3774 134.236 89.1968C134.692 89.0163 135.229 88.926 135.848 88.926C137.654 88.926 138.556 89.7857 138.556 91.5051V94.4969H139.278C139.382 94.4969 139.433 94.5485 139.433 94.6516V95.2062C139.433 95.3093 139.382 95.3609 139.278 95.3609ZM137.486 92.3949H136.467C135.969 92.3949 135.556 92.4207 135.229 92.4723C134.902 92.5239 134.623 92.6356 134.391 92.8076C134.167 92.9795 134.056 93.2159 134.056 93.5168C134.056 93.8177 134.176 94.067 134.417 94.2648C134.666 94.4539 134.988 94.5485 135.384 94.5485C136.218 94.5485 136.918 94.1788 137.486 93.4395V92.3949ZM143.229 98.3785C142.799 98.3785 142.473 98.3484 142.249 98.2882C142.034 98.228 141.858 98.1721 141.721 98.1205C141.592 98.0776 141.48 98.0303 141.385 97.9787C141.291 97.9357 141.2 97.8884 141.114 97.8368C140.736 97.5875 140.594 97.407 140.689 97.2952L141.024 96.8181C141.076 96.7407 141.149 96.7364 141.243 96.8052C141.252 96.8052 141.278 96.8224 141.321 96.8568C141.372 96.8998 141.42 96.9385 141.463 96.9728C141.514 97.0072 141.579 97.0459 141.656 97.0889C141.742 97.1405 141.837 97.1835 141.94 97.2179C142.043 97.2608 142.155 97.2995 142.275 97.3339C142.559 97.4113 142.873 97.45 143.216 97.45C143.835 97.45 144.33 97.2995 144.699 96.9986C145.078 96.7063 145.267 96.2421 145.267 95.6059V94.1358C145.112 94.4969 144.854 94.8064 144.493 95.0643C144.141 95.3222 143.698 95.4512 143.165 95.4512C142.288 95.4512 141.583 95.146 141.05 94.5356C140.526 93.9252 140.263 93.1343 140.263 92.1628C140.263 91.1913 140.53 90.409 141.063 89.8158C141.605 89.2226 142.305 88.926 143.165 88.926C143.698 88.926 144.145 89.0507 144.506 89.3C144.876 89.5407 145.142 89.8373 145.306 90.1898H145.331L145.318 89.171C145.318 89.0679 145.37 89.0163 145.473 89.0163H146.995C147.098 89.0163 147.15 89.0679 147.15 89.171V89.7255C147.15 89.8287 147.098 89.8803 146.995 89.8803H146.298V95.6059C146.298 96.5258 146.015 97.2179 145.447 97.6821C144.889 98.1463 144.149 98.3785 143.229 98.3785ZM141.321 92.1886C141.321 92.8936 141.51 93.4653 141.888 93.9037C142.266 94.3336 142.739 94.5485 143.307 94.5485C143.874 94.5485 144.343 94.3336 144.712 93.9037C145.091 93.4739 145.28 92.8979 145.28 92.1757C145.28 91.4536 145.091 90.8818 144.712 90.4606C144.343 90.0393 143.874 89.8287 143.307 89.8287C142.739 89.8287 142.266 90.0436 141.888 90.4735C141.51 90.9033 141.321 91.475 141.321 92.1886ZM153.608 92.3176H148.966C149 93.0311 149.224 93.5813 149.636 93.9682C150.058 94.355 150.531 94.5485 151.055 94.5485C151.579 94.5485 152.026 94.4367 152.396 94.2132C152.774 93.9897 153.028 93.7705 153.157 93.5555C153.226 93.4696 153.303 93.4567 153.389 93.5168L153.737 93.865C153.789 93.9166 153.815 93.9639 153.815 94.0069C153.815 94.0413 153.793 94.0885 153.75 94.1487C153.716 94.2089 153.638 94.3035 153.518 94.4324C153.398 94.5614 153.226 94.7075 153.002 94.8709C152.787 95.0342 152.504 95.1718 152.151 95.2835C151.807 95.3953 151.437 95.4512 151.042 95.4512C150.139 95.4512 149.383 95.1546 148.772 94.5614C148.171 93.9682 147.87 93.173 147.87 92.1757C147.87 91.1698 148.171 90.3789 148.772 89.8029C149.374 89.2183 150.109 88.926 150.978 88.926C151.854 88.926 152.542 89.2097 153.041 89.7771C153.539 90.3359 153.789 91.0925 153.789 92.0467C153.789 92.0811 153.789 92.1155 153.789 92.1499C153.789 92.2617 153.729 92.3176 153.608 92.3176ZM152.718 91.5309C152.693 90.9979 152.525 90.5724 152.216 90.2543C151.906 89.9362 151.493 89.7771 150.978 89.7771C150.462 89.7771 150.019 89.9233 149.649 90.2156C149.28 90.5079 149.06 90.9463 148.992 91.5309H152.718ZM161.669 95.3609H160.444C160.074 95.3609 159.889 95.1804 159.889 94.8193V91.4278C159.889 90.9291 159.769 90.5423 159.528 90.2672C159.288 89.9921 158.935 89.8545 158.471 89.8545C157.809 89.8545 157.293 90.1253 156.924 90.6669C156.881 90.7185 156.825 90.8131 156.756 90.9506V94.4969H157.439C157.551 94.4969 157.607 94.5485 157.607 94.6516V95.2062C157.607 95.3093 157.551 95.3609 157.439 95.3609H154.976C154.865 95.3609 154.809 95.3093 154.809 95.2062V94.6516C154.809 94.5485 154.865 94.4969 154.976 94.4969H155.686V89.8803H154.976C154.865 89.8803 154.809 89.8287 154.809 89.7255V89.171C154.809 89.0679 154.865 89.0163 154.976 89.0163H156.485C156.597 89.0163 156.653 89.0679 156.653 89.171L156.627 90.0479H156.666C157.113 89.3 157.805 88.926 158.742 88.926C159.43 88.926 159.967 89.1281 160.354 89.5321C160.741 89.9362 160.938 90.4821 160.947 91.1698V94.4969H161.669C161.781 94.4969 161.837 94.5485 161.837 94.6516V95.2062C161.837 95.3093 161.781 95.3609 161.669 95.3609ZM165.454 95.4512C164.878 95.4512 164.418 95.3437 164.074 95.1288C163.73 94.9139 163.515 94.7118 163.43 94.5227H163.404C163.421 94.9439 163.43 95.1675 163.43 95.1933C163.43 95.305 163.369 95.3609 163.249 95.3609H162.811C162.699 95.3609 162.643 95.305 162.643 95.1933V93.2589C162.643 93.1472 162.699 93.0913 162.811 93.0913H163.313C163.434 93.0913 163.494 93.1472 163.494 93.2589V93.5168C163.58 93.7747 163.76 94.0112 164.036 94.2261C164.362 94.484 164.771 94.613 165.261 94.613C166.224 94.613 166.705 94.2777 166.705 93.6071C166.705 93.375 166.572 93.1902 166.305 93.0526C166.039 92.9064 165.712 92.7861 165.325 92.6915C164.947 92.597 164.569 92.4895 164.19 92.3691C163.812 92.2488 163.49 92.0553 163.223 91.7888C162.957 91.5137 162.823 91.1698 162.823 90.7572C162.823 90.1984 163.025 89.7556 163.43 89.429C163.834 89.0937 164.349 88.926 164.977 88.926C165.828 88.926 166.438 89.1753 166.808 89.674H166.834C166.817 89.3645 166.808 89.2054 166.808 89.1968C166.808 89.0851 166.864 89.0292 166.976 89.0292H167.388C167.5 89.0292 167.556 89.0851 167.556 89.1968V90.9893C167.556 91.1011 167.5 91.157 167.388 91.157H166.886C166.765 91.157 166.705 91.1011 166.705 90.9893V90.8088C166.705 90.5767 166.567 90.3488 166.292 90.1253C166.026 89.8932 165.678 89.7771 165.248 89.7771C164.818 89.7771 164.483 89.8674 164.242 90.0479C164.001 90.2285 163.881 90.4649 163.881 90.7572C163.881 91.0409 164.014 91.2644 164.281 91.4278C164.556 91.5825 164.887 91.7072 165.274 91.8017C165.66 91.8877 166.047 91.9866 166.434 92.0983C166.821 92.2101 167.148 92.3949 167.414 92.6528C167.689 92.9107 167.827 93.2675 167.827 93.7232C167.827 94.1788 167.629 94.5829 167.234 94.9353C166.847 95.2792 166.254 95.4512 165.454 95.4512ZM171.6 95.219C171.462 95.219 171.351 95.1116 171.265 94.8967L169.292 89.8803H168.582C168.479 89.8803 168.428 89.8287 168.428 89.7255V89.171C168.428 89.0679 168.479 89.0163 168.582 89.0163H170.916C171.028 89.0163 171.084 89.0679 171.084 89.171V89.7255C171.084 89.8287 171.028 89.8803 170.916 89.8803H170.388L172.051 94.2519H172.077L173.625 89.8803H173.044C172.941 89.8803 172.89 89.8287 172.89 89.7255V89.171C172.89 89.0679 172.941 89.0163 173.044 89.0163H175.443C175.546 89.0163 175.598 89.0679 175.598 89.171V89.7255C175.598 89.8287 175.546 89.8803 175.443 89.8803H174.721L172.425 96.1862C172.142 96.9514 171.845 97.5059 171.535 97.8497C171.235 98.2022 170.818 98.3785 170.285 98.3785C169.76 98.3785 169.309 98.2108 168.931 97.8755C168.845 97.7896 168.832 97.7122 168.892 97.6434L169.214 97.2308C169.292 97.1706 169.369 97.1663 169.446 97.2179C169.653 97.3812 169.898 97.4629 170.181 97.4629C170.465 97.4629 170.697 97.364 170.878 97.1663C171.067 96.9771 171.247 96.6462 171.419 96.1733L171.768 95.219H171.6Z" fill="#5E5C5C"/>
<path d="M136.797 65.1731H140.236V77.0027H136.797V65.1731ZM143.434 72.4462H140.958V69.6952H143.434V65.1731H146.872V77.0027H143.434V72.4462ZM149.105 65.1731H152.543V77.0027H149.105V65.1731ZM153.266 65.1731H157.633V67.8038H153.266V65.1731ZM153.266 69.7124H156.825V72.3431H153.266V69.7124ZM153.266 74.372H157.633V77.0027H153.266V74.372ZM159.7 65.1731H163.139V77.0027H159.7V65.1731ZM164.548 72.9792H163.861V70.3486H164.445C164.801 70.3486 165.07 70.3371 165.253 70.3142C165.437 70.2798 165.58 70.2225 165.683 70.1422C165.775 70.062 165.838 69.9416 165.872 69.7811C165.907 69.6207 165.924 69.3857 165.924 69.0762C165.924 68.7667 165.907 68.5317 165.872 68.3712C165.838 68.1993 165.775 68.0732 165.683 67.993C165.592 67.9127 165.454 67.8611 165.271 67.8382C165.099 67.8153 164.824 67.8038 164.445 67.8038H163.861V65.1731H165.632C166.446 65.1731 167.105 65.2534 167.609 65.4139C168.113 65.5743 168.503 65.8208 168.778 66.1532C169.03 66.4627 169.197 66.8467 169.277 67.3052C169.369 67.7637 169.414 68.354 169.414 69.0762C169.414 70.0047 169.328 70.7211 169.156 71.2255C168.916 71.8674 168.492 72.3201 167.884 72.5838L169.672 77.0027H166.062L164.548 72.9792ZM171.045 65.1731H180.106V67.6147L179.969 67.8038H171.045V65.1731ZM170.856 74.4751L175.292 68.4916H179.453L173.125 77.0027H170.856V74.4751ZM175.98 74.372H180.106V77.0027H174.019L175.98 74.372ZM181.914 65.1731H185.353V77.0027H181.914V65.1731ZM186.075 74.2344H189.755V77.0027H186.075V74.2344ZM191.217 65.1731H194.655V77.0027H191.217V65.1731ZM199.488 73.0996L199.334 72.7557L198.887 71.8788L198.457 70.9675C198.411 70.8873 198.353 70.7669 198.285 70.6065L197.58 69.145L195.688 65.1731H199.196L202.927 73.1168V77.0027H199.488V73.0996ZM201.706 68.8355L203.305 65.1731H206.744L205.403 67.9586L204.836 69.1278L203.752 71.3802L203.323 72.2743L201.706 68.8355ZM209.246 65.1731H209.538L210.897 69.8843L208.919 77.0027H205.48L209.246 65.1731ZM213.115 74.905H210.243L210.965 72.2571H212.341L210.312 65.1731H213.458L217.224 77.0027H213.716L213.115 74.905Z" fill="#5E5C5C"/>
<circle cx="122.067" cy="72.0475" r="3.5821" fill="#C4C4C4"/>
</svg>
